{"title":"[REQ] Team America World Police (2004)","uid":12371771,"size":962812090,"categoryP":"video","categoryS":"movies","magnet":"?xt=urn:btih:5c2e9a4889684972ca9274628039774b2db5fc1c&amp;dn=%5BREQ%5D+Team+America+World+Police+%282004%29&amp;tr=udp%3A%2F%2Ftracker.openbittorrent.com%3A80&amp;tr=udp%3A%2F%2Fopen.demonii.com%3A1337&amp;tr=udp%3A%2F%2Ftracker.coppersurfer.tk%3A6969&amp;tr=udp%3A%2F%2Fexodus.desync.com%3A6969","seeders":1,"leechers":0,"uploader":"TvTeam","files":11,"time":1441663606,"description":"------------------------------------------------------------------------\n\n &lt;a href=&quot; https://www.torrenting.com&quot; rel=&quot;nofollow&quot; target=&quot;_NEW&quot;&gt; https://www.torrenting.com&lt;/a&gt;\n\nSign up is OPEN - for time being. Come and have fun\n\n.......................................................................................................................General\nComplete name                            : Team America World Police (2004).avi\nFormat                                   : AVI\nFormat/Info                              : Audio Video Interleave\nFile size                                : 912 MiB\nDuration                                 : 1h 37mn\nOverall bit rate                         : 1 306 Kbps\nWriting library                          : INFOINAM=\n\nVideo\nID                                       : 0\nFormat                                   : MPEG-4 Visual\nFormat profile                           : Simple@L1\nFormat settings, BVOP                    : No\nFormat settings, QPel                    : No\nFormat settings, GMC                     : No warppoints\nFormat settings, Matrix                  : Default (H.263)\nCodec ID                                 : divx\nCodec ID/Info                            : Mainly used by Google\nCodec ID/Hint                            : DivX\nDuration                                 : 1h 37mn\nBit rate                                 : 1 070 Kbps\nWidth                                    : 1 280 pixels\nHeight                                   : 544 pixels\nDisplay aspect ratio                     : 2.35:1\nFrame rate                               : 23.976 fps\nColor space                              : YUV\nChroma subsampling                       : 4:2:0\nBit depth                                : 8 bits\nScan type                                : Progressive\nCompression mode                         : Lossy\nBits/(Pixel*Frame)                       : 0.064\nStream size                              : 747 MiB (82%)\nWriting library                          : Lavc53.42.4\n\nAudio\nID                                       : 1\nFormat                                   : MPEG Audio\nFormat version                           : Version 1\nFormat profile                           : Layer 3\nMode                                     : Joint stereo\nMode extension                           : MS Stereo\nCodec ID                                 : 55\nCodec ID/Hint                            : MP3\nDuration                                 : 1h 37mn\nBit rate mode                            : Constant\nBit rate                                 : 224 Kbps\nChannel(s)                               : 2 channels\nSampling rate                            : 44.1 KHz\nCompression mode                         : Lossy\nStream size                              : 156 MiB (17%)\nAlignment                                : Aligned on interleaves\nInterleave, duration                     : 26 ms (0.63 video frame)\nWriting library                          : LAME","torrent":{"xt":"urn:btih:5c2e9a4889684972ca9274628039774b2db5fc1c","amp;dn":"%5BREQ%5D+Team+America+World+Police+%282004%29","amp;tr":["udp%3A%2F%2Ftracker.openbittorrent.com%3A80","udp%3A%2F%2Fopen.demonii.com%3A1337","udp%3A%2F%2Ftracker.coppersurfer.tk%3A6969","udp%3A%2F%2Fexodus.desync.com%3A6969"],"infoHash":"5c2e9a4889684972ca9274628039774b2db5fc1c","infoHashBuffer":{"type":"Buffer","data":[92,46,154,72,137,104,73,114,202,146,116,98,128,57,119,75,45,181,252,28]},"announce":[],"urlList":[]}}